<svg xmlns="http://www.w3.org/2000/svg" viewBox="0 0 120 120">
  <defs>
    <linearGradient id="androidGradient" x1="0%" y1="0%" x2="100%" y2="100%">
      <stop offset="0%" stop-color="#3DDC84" />
      <stop offset="100%" stop-color="#32BE72" />
    </linearGradient>
  </defs>
  <!-- Android robot -->
  <circle fill="#E8F5E9" cx="60" cy="60" r="50" />
  <path fill="url(#androidGradient)" d="M85,50 C85,44 80,40 74,40 L46,40 C40,40 35,44 35,50 L35,80 C35,86 40,90 46,90 L74,90 C80,90 85,86 85,80 L85,50 Z" />
  <!-- Eyes -->
  <circle fill="#263238" cx="50" cy="55" r="5" />
  <circle fill="#263238" cx="70" cy="55" r="5" />
  <!-- Antenna -->
  <line x1="60" y1="40" x2="60" y2="25" stroke="#263238" stroke-width="2" stroke-linecap="round" />
  <circle fill="#263238" cx="60" cy="22" r="3" />
  <!-- Arms -->
  <line x1="35" y1="65" x2="20" y2="65" stroke="#3DDC84" stroke-width="4" stroke-linecap="round" />
  <line x1="85" y1="65" x2="100" y2="65" stroke="#3DDC84" stroke-width="4" stroke-linecap="round" />
</svg>
