<svg xmlns="http://www.w3.org/2000/svg" viewBox="0 0 120 120">
  <defs>
    <linearGradient id="optimizationGradient" x1="0%" y1="0%" x2="100%" y2="100%">
      <stop offset="0%" stop-color="#FF5722" />
      <stop offset="100%" stop-color="#D84315" />
    </linearGradient>
  </defs>
  <circle fill="#E8F5E9" cx="60" cy="60" r="50" />
  <!-- Gear symbol -->
  <path fill="url(#optimizationGradient)" d="M60,35 C59.3,35 58.7,35 58,35.1 L56,30 L52,30 L50,35.1 C49.3,35 48.7,35 48,35 C46.7,35 45.4,35.2 44.1,35.4 L40,32 L37,35 L40.4,39.1 C38.8,41.5 38,44.2 38,47 C38,49.8 38.8,52.5 40.4,54.9 L37,59 L40,62 L44.1,58.6 C45.4,58.8 46.7,59 48,59 C49.3,59 50.6,58.8 51.9,58.6 L56,62 L59,59 L55.6,54.9 C57.2,52.5 58,49.8 58,47 C58,44.2 57.2,41.5 55.6,39.1 L59,35 L56,32 L51.9,35.4 C50.6,35.2 49.3,35 48,35 Z M48,42 C50.8,42 53,44.2 53,47 C53,49.8 50.8,52 48,52 C45.2,52 43,49.8 43,47 C43,44.2 45.2,42 48,42 Z" />
  
  <!-- Speed lines -->
  <line x1="63" y1="40" x2="85" y2="40" stroke="url(#optimizationGradient)" stroke-width="3" stroke-linecap="round" />
  <line x1="63" y1="47" x2="80" y2="47" stroke="url(#optimizationGradient)" stroke-width="3" stroke-linecap="round" />
  <line x1="63" y1="54" x2="75" y2="54" stroke="url(#optimizationGradient)" stroke-width="3" stroke-linecap="round" />
  
  <!-- Chart -->
  <path fill="url(#optimizationGradient)" d="M80,60 L80,80 L40,80 L40,60 L50,70 L60,65 L70,75 L80,60 Z" opacity="0.8" />
</svg>
